<svg width="176" height="40" viewBox="0 0 176 40" fill="none" xmlns="http://www.w3.org/2000/svg">
<path fill-rule="evenodd" clip-rule="evenodd" d="M48.6863 29.1444V31.2014H59.219V29.1444H58.9719C57.2852 29.1444 56.8738 28.5272 56.8738 26.7167V16.3078C57.6553 15.4438 59.0132 14.9089 60.2884 14.9089C62.1811 14.9089 63.4565 15.8552 63.4565 18.406V26.7167C63.4565 28.4447 63.1686 29.1444 61.3995 29.1444H61.1938V31.2014H71.4382V29.1444H71.2325C69.2577 29.1444 68.8052 28.4036 68.8052 26.4288V16.9249C68.8052 13.1809 66.789 10.9181 63.1275 10.9181C60.3298 10.9181 58.1493 12.3169 57.0795 14.3329H56.8738V5.61065C56.8738 4.04723 56.8738 2.44267 56.9149 1.08496H55.1869C53.3767 1.61981 49.7561 2.60724 47.7812 2.93638V4.78779H49.0567C50.6612 4.78779 51.5252 5.3638 51.5252 7.2975V26.7167C51.5252 28.3215 50.9491 29.103 48.8921 29.1444H48.6863ZM90.5142 25.4415L90.5141 25.4415C90.5141 27.91 89.2939 28.1157 88.471 28.1157C87.607 28.1157 86.8937 27.7042 86.8937 26.4699L87.017 17.4597V17.2951C87.017 12.6872 83.8078 10.7946 79.3645 10.7946C74.3038 10.7946 71.3828 13.5923 71.3828 16.5957C71.3828 18.3237 72.5347 19.4346 74.0159 19.4346C75.3324 19.4346 76.3611 18.4883 76.3611 17.2951C76.3611 16.8403 76.2813 16.5109 76.2057 16.1989C76.1377 15.9182 76.0732 15.6515 76.0732 15.3203C76.0732 14.086 77.0194 13.0986 78.8709 13.0986C80.7222 13.0986 81.833 14.4151 81.833 16.5134V19.8048L78.377 20.71C74.4684 21.7385 71.5885 23.1785 71.5885 26.7167C71.5885 29.5144 74.0159 31.6539 76.9783 31.6539C79.5292 31.6539 81.2983 30.0905 82.0798 27.9511H82.2855V28.0333C82.368 30.5431 84.096 31.7774 85.9883 31.7774C86.7254 31.7774 87.4046 31.5588 88.0164 31.2014H98.7428V29.1444H98.537C96.48 29.1444 95.8629 28.3626 95.8629 26.7167V5.61065C95.8629 4.04723 95.8629 2.44267 95.904 1.08496H94.1759C92.3658 1.61981 88.7451 2.60724 86.7703 2.93638V4.78779H88.0458C89.6502 4.78779 90.5142 5.3638 90.5142 7.2975V25.4415ZM81.833 21.8208V25.9762C81.2983 26.8402 80.3518 27.6221 79.0353 27.6221C77.6365 27.6221 76.5668 26.6756 76.5668 25.3179C76.5668 23.6722 77.8833 22.9317 80.0639 22.3145L81.833 21.8208ZM106.451 31.8185C111.224 31.8185 114.022 27.91 114.392 23.3842H112.664C112.211 25.1122 110.524 26.6756 108.056 26.6756C104.435 26.6756 102.049 23.6311 102.049 19.4757C102.049 15.8551 104.065 13.6334 106.657 13.6334C108.015 13.6334 108.673 14.3329 108.961 15.1146C109.104 15.4872 109.148 15.8798 109.189 16.2506V16.2506C109.207 16.4121 109.224 16.5694 109.249 16.7191C109.455 17.8711 110.319 18.7763 111.594 18.7763C113.322 18.7763 114.309 17.5831 114.309 16.0197C114.309 15.1149 114.033 14.2629 113.527 13.5199C114.931 13.7642 115.454 14.8657 116.106 16.3489L122.565 30.8724L122.154 31.9008C121.372 33.8756 120.179 34.822 118.451 34.822C118.033 34.822 117.664 34.7644 117.282 34.7048C116.874 34.6411 116.451 34.5752 115.941 34.5752C114.254 34.5752 113.02 35.4392 113.02 37.0026C113.02 38.6895 114.419 39.8825 117.011 39.8825C120.755 39.8825 122.894 37.7841 124.663 33.2998L131.328 16.3901C132.028 14.5798 132.686 13.5101 134.414 13.4689V11.3295H126.72V13.4689H127.255C128.366 13.4689 128.901 13.8803 128.901 14.7032C128.901 15.1146 128.777 15.6495 128.531 16.2666L125.239 25.0711L121.783 16.4723C121.536 15.8963 121.413 15.3615 121.413 14.95C121.413 14.0038 121.989 13.4689 123.182 13.4689H123.676V11.3295H112H110.575C109.647 10.9871 108.576 10.7946 107.397 10.7946C102.008 10.7946 97.482 14.9911 97.482 21.6974C97.482 27.1692 101.062 31.8185 106.451 31.8185ZM142.998 31.8186C148.429 31.8186 153.284 27.5397 153.284 21.286C153.284 15.0323 148.429 10.7535 142.998 10.7535C137.485 10.7535 132.671 15.0323 132.671 21.286C132.671 27.5397 137.485 31.8186 142.998 31.8186ZM142.998 28.9387C140.118 28.9387 138.678 25.9763 138.678 21.286C138.678 16.7192 140.036 13.6746 142.998 13.6746C145.837 13.6746 147.318 16.5958 147.318 21.286C147.318 25.8529 145.919 28.9387 142.998 28.9387ZM153.03 31.2014V29.1444H153.112C155.251 29.1444 155.869 28.4037 155.869 26.7168V16.8838C155.869 15.1147 155.046 14.5387 153.4 14.5387H152.659V12.7284C154.08 12.4379 156.462 11.8182 158.277 11.3461C158.776 11.2165 159.231 11.0979 159.612 11.0004H161.217V14.333H161.423C162.493 12.317 164.673 10.9181 167.43 10.9181C171.132 10.9181 173.149 13.181 173.149 16.9249V26.4289C173.149 28.4037 173.642 29.1444 175.617 29.1444H176V31.2014H165.578V29.1444H165.784C167.512 29.1444 167.8 28.4448 167.8 26.7168V18.4472C167.8 15.8141 166.483 14.909 164.632 14.909C163.357 14.909 161.999 15.485 161.217 16.3078V26.7168C161.217 28.5273 161.629 29.1444 163.315 29.1444H163.562V31.2014H153.03Z" fill="#49556B"/>
<path fill-rule="evenodd" clip-rule="evenodd" d="M33.9094 17.2444C34.4576 16.971 35.0084 16.7553 35.561 16.5973C34.9507 7.32904 27.2237 0 17.7809 0C8.33399 0 0.604102 7.33562 0 16.6098C0.538059 16.7666 1.07451 16.9782 1.60822 17.2444C3.47349 18.1751 5.27404 18.1751 7.1393 17.2444C9.73573 15.949 12.3969 15.949 14.9933 17.2444C16.8586 18.1751 18.6591 18.1751 20.5244 17.2444C23.1208 15.949 25.782 15.949 28.3785 17.2444C30.2437 18.1751 32.0442 18.1751 33.9094 17.2444ZM35.0712 19.5624C35.2251 19.4856 35.3784 19.4152 35.5314 19.3511C35.4268 20.5422 35.2048 21.6996 34.8766 22.8117C34.5533 22.9324 34.2312 23.0729 33.9096 23.2332C32.0443 24.1638 30.2439 24.1638 28.3786 23.2332C25.7821 21.9378 23.121 21.9378 20.5246 23.2332C18.6593 24.1638 16.8588 24.1638 14.9935 23.2332C12.3971 21.9378 9.73589 21.9378 7.13946 23.2332C5.2742 24.1638 3.47365 24.1638 1.60838 23.2332C1.30343 23.0811 0.997579 22.9468 0.691049 22.8304C0.36162 21.7186 0.138186 20.5614 0.0324219 19.3705C0.17027 19.4293 0.30842 19.4933 0.446929 19.5624C3.04337 20.8578 5.70451 20.8578 8.30094 19.5624C10.1662 18.6317 11.9667 18.6317 13.832 19.5624C16.4284 20.8578 19.0896 20.8578 21.686 19.5624C23.5513 18.6317 25.3518 18.6317 27.2172 19.5624C29.8135 20.8578 32.4747 20.8578 35.0712 19.5624ZM2.07852 26.1925C2.80786 27.5452 3.70763 28.793 4.74914 29.9069C5.54078 29.8521 6.33408 29.6238 7.13945 29.2218C9.73587 27.9266 12.397 27.9266 14.9935 29.2218C16.8587 30.1524 18.6593 30.1524 20.5245 29.2218C23.121 27.9266 25.7821 27.9266 28.3786 29.2218C29.1981 29.6309 30.0049 29.8601 30.8105 29.9096C31.857 28.7908 32.7605 27.537 33.4918 26.1772C31.4029 26.7936 29.2892 26.585 27.2172 25.5511C25.3518 24.6205 23.5513 24.6205 21.686 25.5511C19.0896 26.8466 16.4284 26.8466 13.832 25.5511C11.9667 24.6205 10.1662 24.6205 8.30092 25.5511C6.24594 26.5763 4.1504 26.7902 2.07852 26.1925ZM7.12852 32.0353C10.0999 34.2498 13.787 35.5611 17.781 35.5611C21.7686 35.5611 25.4504 34.2538 28.4193 32.0456C28.0174 31.9078 27.6165 31.739 27.2171 31.5398C25.3517 30.6092 23.5512 30.6092 21.6859 31.5398C19.0895 32.8353 16.4283 32.8353 13.8319 31.5398C11.9666 30.6092 10.1661 30.6092 8.30082 31.5398C7.91136 31.7342 7.52045 31.8994 7.12852 32.0353Z" fill="url(#paint0_linear_4857_5529)"/>
<defs>
<linearGradient id="paint0_linear_4857_5529" x1="17.7805" y1="0" x2="17.7805" y2="35.5611" gradientUnits="userSpaceOnUse">
<stop stop-color="#FFAC2F"/>
<stop offset="0.578245" stop-color="#FF8139"/>
<stop offset="1" stop-color="#F44545"/>
</linearGradient>
</defs>
</svg>
